<svg xmlns="http://www.w3.org/2000/svg" viewBox="0 0 800 500">
    <!-- Background -->
    <rect width="800" height="500" fill="#f8f9fa" />

    <!-- Title -->
    <text x="400" y="35" font-family="Arial" font-size="20" text-anchor="middle" font-weight="bold">Generate Parentheses 決策樹 (n = 2)</text>

    <!-- Decision Tree for n=2 -->
    <!-- Root -->
    <circle cx="400" cy="90" r="25" fill="#4285f4" />
    <text x="400" y="95" font-family="Arial" font-size="16" text-anchor="middle" fill="white">""</text>

    <!-- Level 1 -->
    <circle cx="250" cy="180" r="25" fill="#4285f4" />
    <text x="250" y="185" font-family="Arial" font-size="16" text-anchor="middle" fill="white">"("</text>

    <circle cx="550" cy="180" r="25" fill="#f44336" />
    <text x="550" y="185" font-family="Arial" font-size="16" text-anchor="middle" fill="white">")"</text>

    <!-- Lines Level 0 to 1 -->
    <line x1="382" y1="108" x2="268" y2="162" stroke="#000" stroke-width="2" />
    <line x1="418" y1="108" x2="532" y2="162" stroke="#000" stroke-width="2" />

    <!-- Labels Level 0 to 1 -->
    <text x="320" y="130" font-family="Arial" font-size="14" text-anchor="middle">添加 "("</text>
    <text x="495" y="130" font-family="Arial" font-size="14" text-anchor="middle">添加 ")" (無效)</text>

    <!-- Level 2 -->
    <circle cx="180" cy="270" r="25" fill="#4285f4" />
    <text x="180" y="275" font-family="Arial" font-size="16" text-anchor="middle" fill="white">"(("</text>

    <circle cx="320" cy="270" r="25" fill="#4285f4" />
    <text x="320" y="275" font-family="Arial" font-size="16" text-anchor="middle" fill="white">"()"</text>

    <!-- Lines Level 1 to 2 -->
    <line x1="232" y1="198" x2="198" y2="252" stroke="#000" stroke-width="2" />
    <line x1="268" y1="198" x2="302" y2="252" stroke="#000" stroke-width="2" />

    <!-- Labels Level 1 to 2 -->
    <text x="210" y="220" font-family="Arial" font-size="14" text-anchor="middle">添加 "("</text>
    <text x="290" y="220" font-family="Arial" font-size="14" text-anchor="middle">添加 ")"</text>

    <!-- Level 3 -->
    <circle cx="120" cy="360" r="25" fill="#4285f4" />
    <text x="120" y="365" font-family="Arial" font-size="16" text-anchor="middle" fill="white">"(()"</text>

    <circle cx="240" cy="360" r="25" fill="#f44336" />
    <text x="240" y="365" font-family="Arial" font-size="16" text-anchor="middle" fill="white">"())"</text>

    <circle cx="380" cy="360" r="25" fill="#4285f4" />
    <text x="380" y="365" font-family="Arial" font-size="16" text-anchor="middle" fill="white">"()("</text>

    <!-- Lines Level 2 to 3 -->
    <line x1="169" y1="292" x2="131" y2="338" stroke="#000" stroke-width="2" />
    <line x1="331" y1="292" x2="369" y2="338" stroke="#000" stroke-width="2" />
    <line x1="320" y1="295" x2="240" y2="335" stroke="#000" stroke-width="2" stroke-dasharray="5,5" />

    <!-- Labels Level 2 to 3 -->
    <text x="140" y="310" font-family="Arial" font-size="14" text-anchor="middle">添加 ")"</text>
    <text x="380" y="310" font-family="Arial" font-size="14" text-anchor="middle">添加 "("</text>
    <text x="280" y="310" font-family="Arial" font-size="14" text-anchor="middle" fill="#f44336">添加 ")" (無效)</text>

    <!-- Level 4 (Final) -->
    <rect x="60" y="430" width="120" height="40" rx="10" fill="#34a853" />
    <text x="120" y="455" font-family="Arial" font-size="16" text-anchor="middle" fill="white">"(())"</text>

    <rect x="320" y="430" width="120" height="40" rx="10" fill="#34a853" />
    <text x="380" y="455" font-family="Arial" font-size="16" text-anchor="middle" fill="white">"()()"</text>

    <!-- Lines Level 3 to 4 -->
    <line x1="120" y1="385" x2="120" y2="430" stroke="#000" stroke-width="2" />
    <line x1="380" y1="385" x2="380" y2="430" stroke="#000" stroke-width="2" />

    <!-- Labels Level 3 to 4 -->
    <text x="100" y="405" font-family="Arial" font-size="14" text-anchor="middle">添加 ")"</text>
    <text x="360" y="405" font-family="Arial" font-size="14" text-anchor="middle">添加 ")"</text>

    <!-- Legend -->
    <rect x="600" y="400" width="20" height="20" fill="#4285f4" />
    <text x="630" y="415" font-family="Arial" font-size="14" text-anchor="start">有效中間狀態</text>

    <rect x="600" y="430" width="20" height="20" fill="#f44336" />
    <text x="630" y="445" font-family="Arial" font-size="14" text-anchor="start">無效狀態</text>

    <rect x="600" y="460" width="20" height="20" rx="5" fill="#34a853" />
    <text x="630" y="475" font-family="Arial" font-size="14" text-anchor="start">有效最終結果</text>

    <!-- Rules -->
    <rect x="550" y="200" width="220" height="120" rx="10" fill="#fff" stroke="#000" />
    <text x="660" y="225" font-family="Arial" font-size="16" text-anchor="middle" font-weight="bold">回溯規則:</text>
    <text x="560" y="255" font-family="Arial" font-size="14" text-anchor="start">1. 如果左括號數量 n，可添加 "("</text>
    <text x="560" y="285" font-family="Arial" font-size="14" text-anchor="start">2. 如果右括號數量  左括號數量，</text>
    <text x="575" y="305" font-family="Arial" font-size="14" text-anchor="start">可添加 ")"</text>
</svg>