<svg xmlns="http://www.w3.org/2000/svg" viewBox="0 0 800 600">
    <!-- 背景 -->
    <rect width="800" height="600" fill="#f9f9f9"/>

    <!-- 標題 -->
    <text x="400" y="40" font-family="Arial" font-size="24" text-anchor="middle" fill="#333">合併 K 個排序鏈表 - 使用最小堆方法</text>

    <!-- 輸入鏈表 -->
    <g transform="translate(50, 100)">
        <text x="0" y="0" font-family="Arial" font-size="18" fill="#333">輸入鏈表:</text>

        <!-- 鏈表 1 -->
        <g transform="translate(0, 30)">
            <text x="-30" y="25" font-family="Arial" font-size="16" fill="#555">L1:</text>
            <rect x="0" y="10" width="40" height="40" rx="5" fill="#BBDEFB" stroke="#2196F3" stroke-width="2"/>
            <text x="20" y="35" font-family="Arial" font-size="16" text-anchor="middle" fill="#333">1</text>
            <line x1="40" y1="30" x2="70" y2="30" stroke="#2196F3" stroke-width="2"/>
            <polygon points="70,30 60,25 60,35" fill="#2196F3"/>

            <rect x="70" y="10" width="40" height="40" rx="5" fill="#BBDEFB" stroke="#2196F3" stroke-width="2"/>
            <text x="90" y="35" font-family="Arial" font-size="16" text-anchor="middle" fill="#333">4</text>
            <line x1="110" y1="30" x2="140" y2="30" stroke="#2196F3" stroke-width="2"/>
            <polygon points="140,30 130,25 130,35" fill="#2196F3"/>

            <rect x="140" y="10" width="40" height="40" rx="5" fill="#BBDEFB" stroke="#2196F3" stroke-width="2"/>
            <text x="160" y="35" font-family="Arial" font-size="16" text-anchor="middle" fill="#333">5</text>
        </g>

        <!-- 鏈表 2 -->
        <g transform="translate(0, 90)">
            <text x="-30" y="25" font-family="Arial" font-size="16" fill="#555">L2:</text>
            <rect x="0" y="10" width="40" height="40" rx="5" fill="#C8E6C9" stroke="#4CAF50" stroke-width="2"/>
            <text x="20" y="35" font-family="Arial" font-size="16" text-anchor="middle" fill="#333">1</text>
            <line x1="40" y1="30" x2="70" y2="30" stroke="#4CAF50" stroke-width="2"/>
            <polygon points="70,30 60,25 60,35" fill="#4CAF50"/>

            <rect x="70" y="10" width="40" height="40" rx="5" fill="#C8E6C9" stroke="#4CAF50" stroke-width="2"/>
            <text x="90" y="35" font-family="Arial" font-size="16" text-anchor="middle" fill="#333">3</text>
            <line x1="110" y1="30" x2="140" y2="30" stroke="#4CAF50" stroke-width="2"/>
            <polygon points="140,30 130,25 130,35" fill="#4CAF50"/>

            <rect x="140" y="10" width="40" height="40" rx="5" fill="#C8E6C9" stroke="#4CAF50" stroke-width="2"/>
            <text x="160" y="35" font-family="Arial" font-size="16" text-anchor="middle" fill="#333">4</text>
        </g>

        <!-- 鏈表 3 -->
        <g transform="translate(0, 150)">
            <text x="-30" y="25" font-family="Arial" font-size="16" fill="#555">L3:</text>
            <rect x="0" y="10" width="40" height="40" rx="5" fill="#FFECB3" stroke="#FFC107" stroke-width="2"/>
            <text x="20" y="35" font-family="Arial" font-size="16" text-anchor="middle" fill="#333">2</text>
            <line x1="40" y1="30" x2="70" y2="30" stroke="#FFC107" stroke-width="2"/>
            <polygon points="70,30 60,25 60,35" fill="#FFC107"/>

            <rect x="70" y="10" width="40" height="40" rx="5" fill="#FFECB3" stroke="#FFC107" stroke-width="2"/>
            <text x="90" y="35" font-family="Arial" font-size="16" text-anchor="middle" fill="#333">6</text>
        </g>
    </g>

    <!-- 最小堆過程 -->
    <g transform="translate(400, 100)">
        <text x="0" y="0" font-family="Arial" font-size="18" fill="#333">最小堆過程:</text>

        <!-- 最小堆說明 -->
        <rect x="0" y="20" width="330" height="80" rx="5" fill="#FFFFFF" stroke="#555" stroke-width="1" stroke-dasharray="5,5"/>
        <text x="10" y="40" font-family="Arial" font-size="14" fill="#555">1. 初始化最小堆，插入各鏈表頭節點</text>
        <text x="10" y="65" font-family="Arial" font-size="14" fill="#555">2. 彈出堆頂（最小）元素加入結果鏈表</text>
        <text x="10" y="90" font-family="Arial" font-size="14" fill="#555">3. 如果彈出節點有後繼，將後繼加入堆</text>

        <!-- 堆的示意圖 -->
        <g transform="translate(50, 130)">
            <rect x="0" y="0" width="60" height="60" rx="5" fill="#BBDEFB" stroke="#2196F3" stroke-width="2"/>
            <text x="30" y="35" font-family="Arial" font-size="16" text-anchor="middle" fill="#333">1</text>
            <text x="65" y="20" font-family="Arial" font-size="12" fill="#777">(L1)</text>

            <rect x="80" y="0" width="60" height="60" rx="5" fill="#C8E6C9" stroke="#4CAF50" stroke-width="2"/>
            <text x="110" y="35" font-family="Arial" font-size="16" text-anchor="middle" fill="#333">1</text>
            <text x="145" y="20" font-family="Arial" font-size="12" fill="#777">(L2)</text>

            <rect x="160" y="0" width="60" height="60" rx="5" fill="#FFECB3" stroke="#FFC107" stroke-width="2"/>
            <text x="190" y="35" font-family="Arial" font-size="16" text-anchor="middle" fill="#333">2</text>
            <text x="225" y="20" font-family="Arial" font-size="12" fill="#777">(L3)</text>

            <text x="110" y="85" font-family="Arial" font-size="14" text-anchor="middle" fill="#555">最小堆中的節點</text>
        </g>
    </g>

    <!-- 合併結果 -->
    <g transform="translate(50, 330)">
        <text x="0" y="0" font-family="Arial" font-size="18" fill="#333">合併結果:</text>

        <g transform="translate(0, 30)">
            <rect x="0" y="0" width="40" height="40" rx="5" fill="#BBDEFB" stroke="#333" stroke-width="2"/>
            <text x="20" y="25" font-family="Arial" font-size="16" text-anchor="middle" fill="#333">1</text>
            <line x1="40" y1="20" x2="70" y2="20" stroke="#333" stroke-width="2"/>
            <polygon points="70,20 60,15 60,25" fill="#333"/>

            <rect x="70" y="0" width="40" height="40" rx="5" fill="#C8E6C9" stroke="#333" stroke-width="2"/>
            <text x="90" y="25" font-family="Arial" font-size="16" text-anchor="middle" fill="#333">1</text>
            <line x1="110" y1="20" x2="140" y2="20" stroke="#333" stroke-width="2"/>
            <polygon points="140,20 130,15 130,25" fill="#333"/>

            <rect x="140" y="0" width="40" height="40" rx="5" fill="#FFECB3" stroke="#333" stroke-width="2"/>
            <text x="160" y="25" font-family="Arial" font-size="16" text-anchor="middle" fill="#333">2</text>
            <line x1="180" y1="20" x2="210" y2="20" stroke="#333" stroke-width="2"/>
            <polygon points="210,20 200,15 200,25" fill="#333"/>

            <rect x="210" y="0" width="40" height="40" rx="5" fill="#C8E6C9" stroke="#333" stroke-width="2"/>
            <text x="230" y="25" font-family="Arial" font-size="16" text-anchor="middle" fill="#333">3</text>
            <line x1="250" y1="20" x2="280" y2="20" stroke="#333" stroke-width="2"/>
            <polygon points="280,20 270,15 270,25" fill="#333"/>

            <rect x="280" y="0" width="40" height="40" rx="5" fill="#BBDEFB" stroke="#333" stroke-width="2"/>
            <text x="300" y="25" font-family="Arial" font-size="16" text-anchor="middle" fill="#333">4</text>
            <line x1="320" y1="20" x2="350" y2="20" stroke="#333" stroke-width="2"/>
            <polygon points="350,20 340,15 340,25" fill="#333"/>

            <rect x="350" y="0" width="40" height="40" rx="5" fill="#C8E6C9" stroke="#333" stroke-width="2"/>
            <text x="370" y="25" font-family="Arial" font-size="16" text-anchor="middle" fill="#333">4</text>
            <line x1="390" y1="20" x2="420" y2="20" stroke="#333" stroke-width="2"/>
            <polygon points="420,20 410,15 410,25" fill="#333"/>

            <rect x="420" y="0" width="40" height="40" rx="5" fill="#BBDEFB" stroke="#333" stroke-width="2"/>
            <text x="440" y="25" font-family="Arial" font-size="16" text-anchor="middle" fill="#333">5</text>
            <line x1="460" y1="20" x2="490" y2="20" stroke="#333" stroke-width="2"/>
            <polygon points="490,20 480,15 480,25" fill="#333"/>

            <rect x="490" y="0" width="40" height="40" rx="5" fill="#FFECB3" stroke="#333" stroke-width="2"/>
            <text x="510" y="25" font-family="Arial" font-size="16" text-anchor="middle" fill="#333">6</text>
        </g>
    </g>

    <!-- 算法流程 -->
    <g transform="translate(50, 420)">
        <text x="0" y="0" font-family="Arial" font-size="18" fill="#333">算法流程:</text>

        <g transform="translate(20, 30)">
            <rect x="0" y="0" width="700" height="140" rx="5" fill="#FFFFFF" stroke="#666" stroke-width="1"/>

            <!-- 流程步驟 -->
            <circle cx="20" cy="30" r="10" fill="#E91E63"/>
            <text x="40" y="35" font-family="Arial" font-size="14" fill="#333">創建最小堆，並將所有非空鏈表的頭節點加入堆中</text>

            <circle cx="20" cy="70" r="10" fill="#9C27B0"/>
            <text x="40" y="75" font-family="Arial" font-size="14" fill="#333">循環：從堆中彈出最小節點，將其加入結果鏈表</text>

            <circle cx="20" cy="110" r="10" fill="#673AB7"/>
            <text x="40" y="115" font-family="Arial" font-size="14" fill="#333">如果彈出的節點有下一個節點，將下一個節點加入堆中</text>
        </g>
    </g>
</svg>